<?xml version="1.0" encoding="utf-8"?>
<!-- Generator: Adobe Illustrator 20.1.0, SVG Export Plug-In . SVG Version: 6.00 Build 0)  -->
<svg version="1.1" id="Layer_1" xmlns="http://www.w3.org/2000/svg" xmlns:xlink="http://www.w3.org/1999/xlink" x="0px" y="0px"
	 viewBox="0 0 804.1 246" style="enable-background:new 0 0 804.1 246;" xml:space="preserve">
<style type="text/css">
	.st0{fill:#051938;}
	.st1{fill:#2DA34A;}
</style>
<g>
	<g>
		<path class="st0" d="M227.9,164h33.9l-3.2,14.8h-52l16.5-77.3h18.1L227.9,164z"/>
		<path class="st0" d="M281.4,155.6l-0.1,2c0,6.3,4.3,10.3,11,10.3c4.6,0,7.6-2,9.8-6.1h17.3c-5.1,12.5-14.4,18.7-28.4,18.7
			c-16.5,0-26.1-8.9-26.1-24.1c0-8.8,3.4-18.1,8.8-24.3c6-6.8,14.6-10.5,24.7-10.5c15.4,0,24.7,8.9,24.7,24c0,3.4-0.2,5.8-1.2,10.2
			H281.4z M307.1,144c0.1-7.1-2.7-10.1-9.3-10.1c-6.8,0-11.4,3.2-13.8,10.1H307.1z"/>
		<path class="st0" d="M330.3,139.7c3.2-11.9,13-18.3,28-18.3c14.5,0,22.4,5.3,22.4,14.9c0,2.9-0.5,7.3-1,10.1l-4.5,21.2
			c-0.7,3.2-1,5.4-1,7.4v3.8h-16.7v-5.1c-5.9,4.9-10.1,6.6-16.3,6.6c-10.2,0-17.3-6.6-17.3-16c0-6.5,3.4-12.6,8.7-15.9
			c3.7-2.2,7.8-3.2,15.8-4.1l7.5-0.8c7-0.8,9.3-2.1,9.3-5.2c0-2.8-3-4.5-8-4.5c-4.9,0-8.1,2-9.6,5.8H330.3z M362.1,153
			c-2.1,0.5-4.2,0.8-7,1.3L350,155c-6,0.9-9.2,3.5-9.2,7.5c0,3,2.8,5.4,6.3,5.4c6.3,0,11.2-3.9,13.4-10.4L362.1,153z"/>
		<path class="st0" d="M410.4,122.9l-0.9,4.2c5.1-3.9,9.7-5.7,15.2-5.7c12.6,0,20.4,8.7,20.4,22.7c0,7.5-2.2,15.8-5.9,22.2
			c-5,8.8-13.8,14-23.6,14c-6.3,0-10.4-2-15.8-7.3l-5.8,27.5h-16.5l16.5-77.6H410.4z M403.1,156.4c0,6.7,3.2,10.4,9,10.4
			c5.3,0,9.8-3.1,12.6-8.7c1.9-3.9,3.1-9,3.1-12.6c0-6.8-3.4-10.5-9.4-10.5C409.9,135,403.1,144.3,403.1,156.4z"/>
		<path class="st1" d="M508.3,128.9c0-5.4-0.3-7.5-1.5-9.6c-1.9-3.6-6.5-5.8-11.9-5.8c-8.2,0-15.3,4.6-20.3,13
			c-3.7,6.3-5.8,13.9-5.8,20.9c0,12,6.4,19.6,16.6,19.6c8.7,0,15.1-5.4,18.2-15.4h19.1c-5.3,19.5-18.4,29.3-38.9,29.3
			c-21.4,0-33.1-11.4-33.1-31.9c0-10.7,3.4-21.8,9.2-30.7c8-12.3,20.3-18.7,36-18.7c12.4,0,22.2,4.4,27,12.3c2.5,4.1,3.5,8.7,3.4,17
			H508.3z"/>
		<path class="st1" d="M548.7,122.9l-1.6,7.3c3.8-5.4,8-7.5,15.5-7.5c0.8,0,2.3,0.1,4.2,0.2l-3.6,17.1c-1.9-0.2-2.8-0.2-3.9-0.2
			c-9.5,0-14,3.9-16.1,14l-5.3,25h-16.4l11.9-56H548.7z"/>
		<path class="st1" d="M578.3,155.6l-0.1,2c0,6.3,4.3,10.3,11,10.3c4.6,0,7.6-2,9.8-6.1h17.3c-5.1,12.5-14.4,18.7-28.4,18.7
			c-16.4,0-26.1-8.9-26.1-24.1c0-8.8,3.4-18.1,8.8-24.3c6-6.8,14.6-10.5,24.7-10.5c15.4,0,24.7,8.9,24.7,24c0,3.4-0.2,5.8-1.2,10.2
			H578.3z M604.1,144c0.1-7.1-2.7-10.1-9.3-10.1c-6.8,0-11.4,3.2-13.8,10.1H604.1z"/>
		<path class="st1" d="M673.3,178.9H657l0.9-4.3c-5,4.3-8.9,5.8-14.8,5.8c-12.6,0-20-8.3-20-22.5c0-20.9,12.5-36.5,29.3-36.5
			c7.1,0,11.5,2.2,15.2,7.5l5.8-27.3h16.4L673.3,178.9z M644.4,141.9c-2.5,4.3-4.1,10-4.1,14.7c0,6.1,3.5,10.2,8.7,10.2
			c4.8,0,9.3-2.9,11.6-7.3c2.1-3.9,3.6-9.7,3.6-14c0-6.8-3.1-10.5-9-10.5C650.9,135,646.8,137.5,644.4,141.9z"/>
		<path class="st1" d="M699.2,178.9h-16.4l11.9-56H711L699.2,178.9z M712.6,115.5h-16.5l3-13.9h16.3L712.6,115.5z"/>
		<path class="st1" d="M744,135.3h-8.6l-5.1,23.9c-0.6,3-0.8,4.1-0.8,4.6c0,1.6,1.5,2.5,3.9,2.5l1.7-0.1l0.9-0.1l-2.8,12.7
			c-2.9,0.6-5.8,0.8-9.2,0.8c-8.3,0-12.4-2.8-12.4-8.3c0-2.3,0-2.3,1.6-9.8l5.6-26.2h-7l2.7-12.4h7l2.9-13.8H741l-2.9,13.8h8.6
			L744,135.3z"/>
	</g>
</g>
<g>
	<path class="st1" d="M216.6,68.4l-23-23c-1.5-1.5-4-1.5-5.6,0l-58.4,58.4l-0.1-0.1l-18.2,18.2l-13.6,13.6c-0.6,0.6-0.5,1.6,0.1,2.2
		c1,1,9.9,5.8,19.7-4c0.7-0.7,1.7-1.7,2.7-2.7l19.7,19.7l76.6-76.6C218.1,72.4,218.1,69.9,216.6,68.4z"/>
	<path class="st0" d="M117.6,133.6c-9.8,9.8-18.7,5.1-19.7,4c-0.6-0.6-0.7-1.6-0.1-2.2l13.6-13.6l-31-31c-1.5-1.5-4-1.5-5.6,0
		l-23,23c-1.5,1.5-1.5,4,0,5.6l31.4,31.4l6.7-6.7c1.3-1.3,3.3-1.1,4.4,0.3l21.1,26.8c0.9,1.2,0.8,2.9-0.2,4l-3.9,3.9l2.2,2.2
		c1.5,1.5,4,1.5,5.6,0l23-23c1.5-1.5,1.5-4,0-5.6l-2.1-2.1l-19.7-19.7C119.2,131.9,118.3,132.8,117.6,133.6z"/>
	<path class="st1" d="M115.4,171.2l-21.1-26.8c-1.1-1.4-3.2-1.5-4.4-0.3l-6.7,6.7l-1.4,1.4c-1.2,1.2-1.2,3,0,4.2l24,24
		c1.2,1.2,3,1.2,4.2,0l1.4-1.4l3.9-3.9C116.2,174.1,116.3,172.4,115.4,171.2z"/>
</g>
</svg>
